<svg xmlns="http://www.w3.org/2000/svg" fill="none" viewBox="0 0 22 22"><path fill="#251D1A" d="M20.706 16.015c0 .425-.12.82-.312 1.167l-6.129-6.858 6.063-5.304c.236.374.378.814.378 1.289v9.706ZM11 11.569l8.436-7.38a2.396 2.396 0 0 0-1.157-.307H3.72c-.42 0-.81.117-1.155.306L11 11.57Zm2.352-.446-1.953 1.71a.606.606 0 0 1-.798 0l-1.954-1.71-6.206 6.945c.372.233.808.373 1.28.373h14.558c.472 0 .908-.14 1.28-.373l-6.207-6.945ZM1.672 5.02a2.41 2.41 0 0 0-.378 1.289v9.706c0 .425.12.82.312 1.167l6.128-6.859L1.672 5.02Z"/></svg>