<svg xmlns="http://www.w3.org/2000/svg" fill="none" viewBox="0 0 22 22"><path fill="#251D1A" d="M18.502 13.763c-.795-.785-1.787-.785-2.577 0-.603.598-1.206 1.195-1.798 1.803-.162.167-.299.202-.497.091-.39-.213-.805-.385-1.18-.618-1.747-1.099-3.21-2.512-4.507-4.102-.643-.79-1.215-1.636-1.615-2.588-.081-.192-.066-.319.09-.476.604-.582 1.191-1.18 1.784-1.777.825-.831.825-1.803-.005-2.639-.471-.476-.942-.942-1.413-1.418-.487-.486-.968-.977-1.459-1.459-.795-.774-1.788-.774-2.578.006-.607.597-1.19 1.21-1.808 1.797-.572.542-.86 1.206-.921 1.98C-.08 5.626.23 6.816.666 7.975c.891 2.4 2.248 4.533 3.894 6.488 2.224 2.643 4.877 4.735 7.982 6.244 1.398.679 2.846 1.2 4.42 1.287 1.085.06 2.027-.213 2.781-1.059.517-.577 1.1-1.104 1.646-1.656.81-.82.816-1.813.01-2.623-.962-.968-1.93-1.93-2.897-2.892Z"/></svg>