<svg xmlns="http://www.w3.org/2000/svg" fill="none" viewBox="0 0 80 80"><path fill="#FF6E40" d="M69.638 52.862A11.428 11.428 0 0 1 66.25 44.7V22.862c0-11.924-9.687-21.612-21.612-21.612-1.55 0-3.113.175-4.638.5a22.32 22.32 0 0 0-4.637-.5c-11.925 0-21.613 9.688-21.613 21.613V44.7c0 3.087-1.2 5.987-3.387 8.162l-1.225 1.225 1.55.775a36.886 36.886 0 0 0 16.45 3.888H30v-3.469h.039A14.974 14.974 0 0 1 22.5 42.288v-7.5c0-.163.013-.313.05-.463l-.012.025A4.999 4.999 0 0 1 25 25v-.075a9.98 9.98 0 0 1 5.525-8.938L32.5 15a14.709 14.709 0 0 0 7.688 7.075l1.062.425L42.5 15l4.463.738a9.677 9.677 0 0 1 5.212 2.687A9.632 9.632 0 0 1 55 25.238V25a4.999 4.999 0 0 1 2.463 9.35l-.013-.025c.038.15.05.3.05.462v7.5a14.973 14.973 0 0 1-7.539 12.994h.04v3.469h2.862a36.886 36.886 0 0 0 16.45-3.888l1.55-.775-1.225-1.225Z"/><path fill="#EFE7E2" d="M42.5 39.705A2.78 2.78 0 0 1 40 41.25a2.78 2.78 0 0 1-2.5-1.545l-.13-.264-2.237 1.119.131.264A5.266 5.266 0 0 0 40 43.75a5.265 5.265 0 0 0 4.737-2.928l.13-.263-2.235-1.12-.132.266Z"/><path fill="#EFE7E2" d="m66.655 63.008-15.405-2.8V55.98a16.23 16.23 0 0 0 7.5-13.691v-7.292A6.266 6.266 0 0 0 61.25 30c0-3.051-2.2-5.589-5.095-6.134a10.784 10.784 0 0 0-3.09-6.319 10.813 10.813 0 0 0-5.901-3.037l-5.69-.95-1.199 7.196a13.426 13.426 0 0 1-6.311-5.697l.592-.889a12.148 12.148 0 0 1 10.129-5.42c2.411 0 4.746.706 6.754 2.045l.367.245 1.387-2.08-.368-.245a14.63 14.63 0 0 0-8.14-2.465 14.649 14.649 0 0 0-12.211 6.535l-.83 1.246-1.675.838c-3.515 1.756-5.787 5.146-6.145 9.001-2.885.551-5.074 3.086-5.074 6.13 0 1.976.941 3.826 2.5 4.998v7.292a16.23 16.23 0 0 0 7.5 13.691v4.227l-15.405 2.8A14.724 14.724 0 0 0 1.25 77.5v1.25h77.5V77.5a14.724 14.724 0 0 0-12.095-14.492ZM28.75 46.684a16.236 16.236 0 0 0 2.5 1.987v5.87l-.269-.146c-.809-.436-1.54-.966-2.231-1.538v-6.173Zm5 3.277c.811.34 1.641.64 2.5.844v6.428l-2.5-1.346v-5.925Zm5 1.214c.416.033.83.074 1.25.074.42 0 .834-.041 1.25-.074v7.326a3.747 3.747 0 0 1-2.5 0v-7.326Zm5-.37a16.255 16.255 0 0 0 2.5-.843v5.925l-2.5 1.346v-6.428Zm5 3.735v-5.868a16.236 16.236 0 0 0 2.5-1.988v6.172c-.691.573-1.422 1.104-2.231 1.54l-.269.144ZM51 43.251a13.818 13.818 0 0 1-11 5.499 13.82 13.82 0 0 1-11-5.499c-.01-.014-.019-.029-.03-.042l1.56-3.512a5.807 5.807 0 0 1 7.9-2.835l1.57.785 1.57-.785a5.807 5.807 0 0 1 7.9 2.835l1.56 3.512-.03.042ZM37.057 60.51c.903.485 1.92.741 2.943.741 1.023 0 2.04-.256 2.943-.741l5.807-3.127v3.243L40 67.188l-8.75-6.563v-3.242l5.807 3.126Zm.96 8.316-7.268 6.359L27.914 62.9l1.772-.322 8.33 6.247ZM40 70.411l6.672 5.839H33.328L40 70.411Zm1.984-1.586 8.33-6.248 1.772.323-2.835 12.284-7.267-6.359ZM56.25 42.29c0 2.873-.916 5.59-2.5 7.858v-6.492A16.366 16.366 0 0 0 56.25 35v7.29ZM58.75 30c0 .889-.341 1.718-.894 2.383-.07-.083-.127-.173-.205-.25l-1.401-1.4V26.48c1.451.517 2.5 1.892 2.5 3.52Zm-32.5-5.07a8.7 8.7 0 0 1 4.837-7.826l.898-.449a15.942 15.942 0 0 0 7.741 6.582l2.502 1 1.3-7.797 3.224.537a8.324 8.324 0 0 1 4.545 2.34 8.314 8.314 0 0 1 2.453 5.92V35c0 1.904-.41 3.794-1.172 5.532l-.823-1.85a8.313 8.313 0 0 0-7.589-4.932 8.34 8.34 0 0 0-3.713.876l-.453.227-.451-.227a8.312 8.312 0 0 0-11.304 4.055l-.823 1.852A13.812 13.812 0 0 1 26.25 35V24.93Zm-2.5 1.55v4.253l-1.401 1.4c-.078.078-.135.167-.205.25-.553-.666-.894-1.494-.894-2.383 0-1.628 1.049-3.003 2.5-3.52Zm0 15.81V35c0 3.051.881 6.078 2.5 8.656v6.492c-1.584-2.268-2.5-4.986-2.5-7.858Zm-9.957 23.176 11.658-2.12L28.43 76.25H3.814a12.226 12.226 0 0 1 9.979-10.784ZM51.57 76.25l2.978-12.904 11.658 2.12a12.227 12.227 0 0 1 9.98 10.784H51.57Z"/><path fill="#EFE7E2" d="M32.5 27.5c.689 0 1.25.56 1.25 1.25h2.5A3.755 3.755 0 0 0 32.5 25a3.755 3.755 0 0 0-3.75 3.75h2.5c0-.69.561-1.25 1.25-1.25ZM47.5 27.5c.689 0 1.25.56 1.25 1.25h2.5A3.755 3.755 0 0 0 47.5 25a3.755 3.755 0 0 0-3.75 3.75h2.5c0-.69.561-1.25 1.25-1.25Z"/></svg>