<svg xmlns="http://www.w3.org/2000/svg" fill="none" viewBox="0 0 45 45"><path fill="#FF6E40" d="M38.187 7.314c-8.837 0-16 7.163-16 16 8.836 0 16-7.164 16-16Z"/><path fill="#FF6E40" d="M38.187 37.316c-8.837 0-16-7.164-16-16 8.836 0 16 7.163 16 16ZM22.186 23.316c-8.836 0-16-7.164-16-16 8.837 0 16 7.163 16 16Z"/><path fill="#FF6E40" d="M22.186 21.314c-8.836 0-16 7.163-16 16 8.837 0 16-7.164 16-16Z"/><path fill="#FF6E40" d="M43.813 22.629c-6.249-6.248-16.38-6.248-22.628 0 6.249 6.248 16.38 6.248 22.628 0Z"/><path fill="#FF6E40" d="M43.813 22.629c-6.249-6.248-16.38-6.248-22.628 0 6.249 6.248 16.38 6.248 22.628 0Z"/><path fill="#FF6E40" d="M23.814 22.63c-6.248-6.25-16.38-6.25-22.627 0 6.248 6.248 16.379 6.248 22.627 0Z"/><path fill="#FF6E40" d="M22.5 22.627C16.252 16.38 16.252 6.248 22.5 0c6.249 6.248 6.249 16.379 0 22.627Z"/><path fill="#FF6E40" d="M22.5 22.002c-6.248 6.248-6.248 16.379 0 22.627 6.249-6.248 6.249-16.379 0-22.627Z"/></svg>